<?xml version="1.0" standalone="no"?>
<svg viewBox="0 0 200 200" xmlns="http://www.w3.org/2000/svg">
  <path fill="#FF0066" d="M41,-61.3C52.3,-56.6,60,-43.7,66.3,-30.2C72.6,-16.7,77.5,-2.4,76.3,11.4C75,25.3,67.6,38.7,57.6,49.4C47.5,60,34.9,67.9,20.3,74.6C5.8,81.3,-10.7,86.9,-26.3,84.5C-41.8,82.2,-56.5,71.9,-64.4,58.3C-72.3,44.7,-73.5,27.7,-69.3,13.9C-65.1,0.2,-55.5,-10.4,-50.3,-23.4C-45.1,-36.4,-44.2,-51.9,-36.5,-58.3C-28.8,-64.7,-14.4,-62,0.2,-62.4C14.9,-62.7,29.7,-66.1,41,-61.3Z" transform="translate(100 100)" />
</svg>
